<?xml version="1.0" encoding="utf-8"?>
<!-- Generator: Adobe Illustrator 24.2.0, SVG Export Plug-In . SVG Version: 6.00 Build 0)  -->
<svg version="1.1" id="图层_1" xmlns="http://www.w3.org/2000/svg" xmlns:xlink="http://www.w3.org/1999/xlink" x="0px" y="0px"
	 viewBox="0 0 841.89 792" style="enable-background:new 0 0 841.89 792;" xml:space="preserve">
<style type="text/css">
	.st0{fill:#FFF1DC;}
	.st1{fill:#FFE3DB;}
	.st2{fill:#F23D4F;}
	.st3{fill:#FC4956;}
	.st4{fill:#FF5C64;}
	.st5{fill:#FF716E;}
	.st6{fill:#E9F4FF;}
	.st7{fill:#2595E8;}
	.st8{fill:#3A9CED;}
	.st9{fill:#59ADF8;}
	.st10{fill:#6BC2FC;}
	.st11{clip-path:url(#SVGID_2_);fill:#FFF1DC;}
	.st12{fill:#FC7032;}
	.st13{fill:#FF7E3E;}
	.st14{fill:#FF9552;}
	.st15{fill:#FFA56A;}
</style>
<path class="st0" d="M671.16,764.12h-507.3c-59.09,0-107-47.91-107-107v-507.3c0-59.09,47.91-107,107-107h507.3
	c59.09,0,107,47.91,107,107v507.3C778.16,716.22,730.25,764.12,671.16,764.12z"/>
<g>
	<path class="st1" d="M56.85,403.47c0,199.18,161.47,360.65,360.65,360.65c199.18,0,360.65-161.47,360.65-360.65
		c0-199.18-161.47-360.65-360.65-360.65C218.32,42.82,56.85,204.29,56.85,403.47L56.85,403.47z M56.85,403.47"/>
	<path class="st2" d="M652.94,330.32c-4.18-17.25-19.99-45.92-36.37-69.51c-7.21-10.36-23.18-7.83-26.95,4.26
		c-5.9,18.68-15.28,40.14-31.58,59.43c-2.99,3.52-8.81,1.72-9.09-2.91c-3.11-47.8-25.77-171.37-185.51-188.74
		c-11.02-1.19-19.62,9.5-16.02,19.99c12.04,35.23,21.71,102.93-33.46,144.43c-2.25,1.67-5.37,1.1-7.13-1.07
		c-18.39-23.43-41.33-37.8-72.42-43.62c-10.85-2.01-19.99,7.86-17.49,18.64c4.84,20.77,6.84,56.2-12.94,104.45
		c-33.22,80.9-71.52,276.28,233.27,276.28C742.03,651.94,658.8,354.53,652.94,330.32L652.94,330.32z M297.12,548.64
		c-4.69,4.4-10.95,6.75-17.38,6.54c-6.43-0.22-12.51-2.98-16.9-7.69C222.25,504.07,239.9,423.09,242.03,414
		c3.07-13.03,16.14-21.14,29.16-18.02c6.25,1.47,11.66,5.37,15.05,10.83c3.38,5.46,4.45,12.04,2.98,18.3
		c-3.85,16.55-10.45,68.4,9.01,89.25C307.4,524.14,306.91,539.5,297.12,548.64L297.12,548.64z M297.12,548.64"/>
	<path class="st3" d="M647.78,315.41c-7-16.43-18.96-36.95-31.21-54.6c-7.21-10.36-23.18-7.83-26.95,4.26
		c-5.9,18.68-15.28,40.14-31.58,59.43c-2.99,3.52-8.81,1.72-9.09-2.91c-3.11-47.8-25.77-171.37-185.51-188.74
		c-11.02-1.19-19.62,9.5-16.02,19.99c12.04,35.23,21.71,102.93-33.46,144.43c-2.25,1.67-5.37,1.1-7.13-1.07
		c-18.39-23.43-41.33-37.8-72.42-43.62c-10.85-2.01-19.99,7.86-17.49,18.64c4.84,20.77,6.84,56.2-12.94,104.45
		c-29,70.62-61.81,228.39,132.91,267.43C506.35,626.33,639.79,487.28,647.78,315.41L647.78,315.41z M297.12,548.64
		c-4.69,4.4-10.95,6.75-17.38,6.54c-6.43-0.22-12.51-2.98-16.9-7.69C222.25,504.07,239.9,423.09,242.03,414
		c3.07-13.03,16.14-21.14,29.16-18.02c6.25,1.47,11.66,5.37,15.05,10.83c3.38,5.46,4.45,12.04,2.98,18.3
		c-3.85,16.55-10.45,68.4,9.01,89.25C307.4,524.14,306.91,539.5,297.12,548.64L297.12,548.64z M297.12,548.64"/>
	<path class="st4" d="M540.26,271.58c-15.85-55.34-59.02-125.91-176.87-138.73c-11.02-1.19-19.62,9.5-16.02,19.99
		c12.04,35.23,21.71,102.93-33.46,144.43c-2.25,1.67-5.37,1.1-7.13-1.07c-18.39-23.43-41.33-37.8-72.42-43.62
		c-10.85-2.01-19.99,7.86-17.49,18.64c4.83,20.77,6.84,56.2-12.95,104.45c-14.5,35.31-29.98,92.45-17.41,145.66
		c7.13,0.45,14.25,0.73,21.5,0.73c12.74,0,25.27-0.73,37.64-2.09c-17.41-43.63-5.41-98.51-3.68-105.93
		c3.07-13.02,16.14-21.13,29.16-18.02c6.25,1.47,11.67,5.36,15.05,10.82c3.38,5.47,4.45,12.05,2.98,18.3
		c-3.64,15.69-9.71,63.08,6.23,85.69C413.49,480.06,506.84,388.48,540.26,271.58L540.26,271.58z M540.26,271.58"/>
	<path class="st5" d="M363.4,132.85c-11.02-1.19-19.62,9.5-16.02,19.99c12.04,35.23,21.71,102.93-33.46,144.43
		c-2.25,1.67-5.37,1.1-7.13-1.07c-18.39-23.43-41.33-37.8-72.42-43.62c-10.85-2.01-19.99,7.86-17.49,18.64
		c4.83,20.77,6.84,56.2-12.95,104.45c-2.05,5.06-3.99,10.17-5.82,15.32c119.85-27.32,216.02-116.82,252.6-232.86
		C427.54,145.79,398.87,136.7,363.4,132.85L363.4,132.85z M363.4,132.85"/>
</g>
<g>
	<path class="st1" d="M56.85,403.47c0,199.18,161.47,360.65,360.65,360.65c199.18,0,360.65-161.47,360.65-360.65
		c0-199.18-161.47-360.65-360.65-360.65C218.32,42.82,56.85,204.29,56.85,403.47L56.85,403.47z M56.85,403.47"/>
	<path class="st2" d="M508.11,675.53H333.95c-13.56,0-24.57-11.02-24.57-24.58c0-13.56,11.02-24.57,24.57-24.57h174.16
		c13.55,0,24.57,11.02,24.57,24.57C532.68,664.51,521.66,675.53,508.11,675.53L508.11,675.53z M425.45,129.94
		c-115.46-3.77-213.56,91.1-213.56,206.65c0,74.1,38.99,139.02,97.52,175.51v47.06c0,19.75,16.02,35.72,35.72,35.72h150.48
		c19.75,0,35.72-16.02,35.72-35.72v-49.31c56.61-36.91,94.04-100.72,94.04-173.31C625.42,224.68,536.49,133.55,425.45,129.94
		L425.45,129.94z M363.77,267.81c-0.66,0.66-32.77,31.7-34.53,77.91c-0.53,14.34-12.37,25.6-26.58,25.6h-1.02
		c-14.7-0.58-26.15-12.95-25.6-27.65c2.66-69.06,49.52-113.05,51.53-114.9c10.82-9.96,27.66-9.28,37.64,1.52
		C375.15,241.06,374.5,257.84,363.77,267.81L363.77,267.81z M363.77,267.81"/>
	<path class="st3" d="M599.41,276.29c0-15.57-1.19-30.84-3.32-45.84c-35.02-58.45-98.1-98.18-170.64-100.52
		c-115.46-3.77-213.56,91.1-213.56,206.65c0,74.1,38.99,139.02,97.52,175.51v47.06c0,15.61,10.03,28.88,24,33.71
		C484.52,566.62,599.41,434.89,599.41,276.29L599.41,276.29z M363.77,267.81c-0.66,0.66-32.77,31.7-34.53,77.91
		c-0.53,14.34-12.37,25.6-26.58,25.6h-1.02c-14.7-0.58-26.15-12.95-25.6-27.65c2.66-69.06,49.52-113.05,51.53-114.9
		c10.82-9.96,27.66-9.28,37.64,1.52C375.15,241.06,374.5,257.84,363.77,267.81L363.77,267.81z M363.77,267.81"/>
	<path class="st4" d="M211.89,336.58c0,53.12,20.15,101.54,53.08,138.12c141.36-33.79,246.5-160.89,246.5-312.61
		c0-3.48-0.16-6.97-0.24-10.45c-26.66-13.4-55.91-20.82-85.73-21.75C309.99,126.17,211.89,221.04,211.89,336.58L211.89,336.58z
		 M363.77,267.81c-0.66,0.66-32.77,31.7-34.53,77.91c-0.53,14.34-12.37,25.6-26.58,25.6h-1.02c-14.7-0.58-26.15-12.95-25.6-27.65
		c2.66-69.06,49.52-113.05,51.53-114.9c10.82-9.96,27.66-9.28,37.64,1.52C375.15,241.06,374.5,257.84,363.77,267.81L363.77,267.81z
		 M363.77,267.81"/>
	<path class="st5" d="M327.56,228.78c6.2-5.71,14.72-8.15,23-6.59c8.28,1.55,15.33,6.93,19.03,14.5
		c22.98-31.74,40.39-67.83,50.59-106.83C307,129.2,211.89,222.84,211.89,336.58c0,5.44,0.29,10.81,0.69,16.14
		c23.08-7.84,45.19-18.28,65.9-31.13C288.6,265.35,325.8,230.42,327.56,228.78L327.56,228.78z M327.56,228.78"/>
</g>
<g>
	<path class="st6" d="M56.85,403.47c0,199.18,161.47,360.65,360.65,360.65c199.18,0,360.65-161.47,360.65-360.65
		c0-199.18-161.47-360.65-360.65-360.65C218.32,42.82,56.85,204.29,56.85,403.47L56.85,403.47z M56.85,403.47"/>
	<path class="st7" d="M613.01,199.98H449.13v-16.3c0-13.89-11.26-25.15-25.15-25.15c-13.89,0-25.15,11.27-25.15,25.15v16.3H219.22
		c-23.59,0-42.68,19.13-42.68,42.68v245.11c0,23.59,19.13,42.68,42.68,42.68h110.3l-47.02,85.89c-3.21,5.85-3.96,12.74-2.09,19.15
		c1.88,6.41,6.22,11.8,12.08,15.01c3.85,2.09,7.98,3.11,12.04,3.11c8.89,0,17.53-4.75,22.12-13.11l60.25-110.06h80.9l60.25,110.06
		c4.42,8.09,12.9,13.11,22.12,13.11c4.1,0,8.24-0.98,12.04-3.11c5.86-3.2,10.21-8.6,12.08-15.01c1.88-6.41,1.13-13.3-2.09-19.15
		l-47.02-85.89h87.82c23.59,0,42.68-19.13,42.68-42.68V242.66C655.69,219.07,636.56,199.98,613.01,199.98L613.01,199.98z
		 M442.94,447.46H293.56c-13.88,0-25.15-11.27-25.15-25.15c0-13.89,11.27-25.15,25.15-25.15h149.38c13.88,0,25.15,11.27,25.15,25.15
		C468.13,436.2,456.87,447.46,442.94,447.46L442.94,447.46z M535.88,338.96H293.56c-13.88,0-25.15-11.27-25.15-25.15
		c0-13.89,11.27-25.15,25.15-25.15h242.36c13.89,0,25.15,11.26,25.15,25.15C561.07,327.69,549.81,338.96,535.88,338.96
		L535.88,338.96z M535.88,338.96"/>
	<path class="st8" d="M613.01,199.98H449.13v-16.3c0-13.89-11.26-25.15-25.15-25.15c-13.89,0-25.15,11.27-25.15,25.15v16.3H219.22
		c-23.59,0-42.68,19.13-42.68,42.68v245.11c0,23.59,19.13,42.68,42.68,42.68h110.3l-38.14,69.63c0.7,0,1.4,0.04,2.09,0.04
		c19.7,0,39-1.6,57.84-4.63l35.59-65.04h80.9l10.32,18.88c105.39-62.96,175.96-178.14,175.96-309.82c0-2.91-0.04-5.78-0.12-8.65
		C648.85,213.01,632.46,199.98,613.01,199.98L613.01,199.98z M442.94,447.46H293.56c-13.88,0-25.15-11.27-25.15-25.15
		c0-13.89,11.27-25.15,25.15-25.15h149.38c13.88,0,25.15,11.27,25.15,25.15C468.13,436.2,456.87,447.46,442.94,447.46L442.94,447.46
		z M535.88,338.96H293.56c-13.88,0-25.15-11.27-25.15-25.15c0-13.89,11.27-25.15,25.15-25.15h242.36
		c13.89,0,25.15,11.26,25.15,25.15C561.07,327.69,549.81,338.96,535.88,338.96L535.88,338.96z M535.88,338.96"/>
	<path class="st9" d="M449.13,183.68c0-13.89-11.26-25.15-25.15-25.15c-13.89,0-25.15,11.27-25.15,25.15v16.3H219.22
		c-23.59,0-42.68,19.13-42.68,42.68v228.93c6.06,0.29,12.17,0.45,18.27,0.45c46.24,0,90.44-8.72,131.03-24.57h-32.28
		c-13.88,0-25.15-11.27-25.15-25.15c0-13.89,11.27-25.15,25.15-25.15H414.8c22.09-17.04,42.14-36.57,59.76-58.2h-181
		c-13.88,0-25.15-11.27-25.15-25.15c0-13.89,11.27-25.15,25.15-25.15h215.37c15.76-27.84,27.7-57.66,35.51-88.68h-95.35v-16.3
		H449.13z M449.13,183.68"/>
	<path class="st10" d="M270.46,303.81c3.98-9.22,13.06-15.2,23.1-15.2h3.28c37.11-23.51,69.63-53.62,95.93-88.68H219.22
		c-23.59,0-42.68,19.13-42.68,42.68v94.49C209.72,330.36,241.25,319.01,270.46,303.81L270.46,303.81z M419.39,158.94
		c-11.71,2.17-20.6,12.41-20.6,24.74v8.03C406.2,181.18,413.08,170.24,419.39,158.94L419.39,158.94z M419.39,158.94"/>
</g>
<g>
	<g>
		<defs>
			<rect id="SVGID_1_" x="56.55" y="42.03" width="721.92" height="722.88"/>
		</defs>
		<clipPath id="SVGID_2_">
			<use xlink:href="#SVGID_1_"  style="overflow:visible;"/>
		</clipPath>
		<path class="st11" d="M56.55,403.3c0,128.85,68.74,247.91,180.33,312.34c111.59,64.42,249.07,64.42,360.65,0
			c111.59-64.43,180.33-183.49,180.33-312.34c0-199.18-161.47-360.65-360.65-360.65C218.01,42.64,56.55,204.11,56.55,403.3
			L56.55,403.3z M56.55,403.3"/>
	</g>
	<path class="st12" d="M616.55,214.14c-46.73-1.31-137.17-8.6-182.07-44.4c-10.2-8.15-24.37-9.01-35.39-2
		c-28.84,18.31-87.12,48.41-162.61,51.73c-16.34,0.74-29.29,14.01-29.29,30.35c0,114.69,0.12,111.7,0.12,141.89
		c0,32.11-36.78,162.57,197.55,263.78c7.54,3.28,16.14,3.36,23.76,0.2c176.86-72.82,217.33-149.59,217.33-238.47V244.5
		C646,228.07,632.98,214.59,616.55,214.14L616.55,214.14z M529.31,380.85L424.53,485.18c-5.5,5.48-12.96,8.56-20.73,8.56
		c-7.5,0-14.99-2.83-20.68-8.52l-60.74-60.29c-11.52-11.44-11.59-30.05-0.16-41.58c11.44-11.52,30.04-11.59,41.57-0.16l40.02,39.69
		l84.09-83.72c11.51-11.43,30.11-11.43,41.57,0.08C540.86,350.79,540.82,369.38,529.31,380.85L529.31,380.85z M529.31,380.85"/>
	<path class="st13" d="M629.9,262.6c0-15.73-1.15-31.21-3.24-46.37c-3.15-1.23-6.55-1.97-10.12-2.09
		c-46.73-1.31-137.17-8.6-182.07-44.4c-10.2-8.15-24.37-9.01-35.39-2c-28.84,18.31-87.12,48.41-162.61,51.73
		c-16.34,0.74-29.29,14.01-29.29,30.35c0,114.69,0.12,111.7,0.12,141.89c0,26.78-25.52,121.94,101.83,211.52
		C488.1,592.53,629.9,444.18,629.9,262.6L629.9,262.6z M322.17,383.35c11.44-11.52,30.04-11.59,41.57-0.16l40.02,39.69l84.09-83.72
		c11.51-11.43,30.11-11.43,41.57,0.08c5.51,5.52,8.59,13.01,8.58,20.8c-0.02,7.8-3.13,15.27-8.66,20.77L424.57,485.14
		c-5.5,5.48-12.96,8.56-20.73,8.56c-7.5,0-14.99-2.82-20.69-8.52l-60.74-60.29C310.83,413.5,310.74,394.9,322.17,383.35
		L322.17,383.35z M322.17,383.35"/>
	<path class="st14" d="M399.09,167.74c-28.84,18.31-87.12,48.41-162.61,51.73c-16.34,0.74-28.8,14.01-29.29,30.35
		c-3.24,107.36-3.32,110.92-3.32,141.11c0,14.34-3.89,49.07,8.89,91.3c46.09-2.32,91.21-14.01,132.63-34.36l-23.1-22.94
		c-11.52-11.44-11.59-30.05-0.16-41.58c11.44-11.52,30.04-11.59,41.57-0.16l33.46,33.22c67.95-49.97,116.65-124.52,133.12-210.54
		c-35.88-6.31-72.17-17.28-95.84-36.13C424.28,161.63,410.11,160.73,399.09,167.74L399.09,167.74z M399.09,167.74"/>
	<path class="st15" d="M419.33,163.39c-6.88-0.9-14.05,0.45-20.23,4.38c-28.84,18.31-87.12,48.41-162.61,51.73
		c-16.34,0.73-29.29,14.01-29.29,30.35c0,52.27-2.83,79.3-2.79,96.95C298.74,318.6,378.65,251.54,419.33,163.39L419.33,163.39z
		 M419.33,163.39"/>
</g>
</svg>
