<?xml version="1.0" encoding="utf-8"?>
<!-- Generator: Adobe Illustrator 24.2.0, SVG Export Plug-In . SVG Version: 6.00 Build 0)  -->
<svg version="1.1" id="图层_1" xmlns="http://www.w3.org/2000/svg" xmlns:xlink="http://www.w3.org/1999/xlink" x="0px" y="0px"
	 viewBox="0 0 841.89 792" style="enable-background:new 0 0 841.89 792;" xml:space="preserve">
<style type="text/css">
	.st0{fill:#E3FFF3;}
	.st1{fill:none;}
	.st2{fill:#05C46D;}
	.st3{fill:#F4F0EF;}
	.st4{fill:#FFFFFF;}
	.st5{fill:#FC7032;}
	.st6{fill:#1DCE75;}
	.st7{fill:#3CD38E;}
	.st8{fill:#48E1AA;}
	.st9{clip-path:url(#SVGID_2_);fill:#E3FFF3;}
</style>
<path class="st0" d="M674.6,760.63h-507.3c-59.09,0-107-47.91-107-107v-507.3c0-59.09,47.91-107,107-107h507.3
	c59.09,0,107,47.91,107,107v507.3C781.6,712.72,733.69,760.63,674.6,760.63z"/>
<path class="st0" d="M59.98,399.8c0,128.85,68.74,247.91,180.33,312.34c111.59,64.42,249.07,64.42,360.65,0
	c111.59-64.43,180.33-183.49,180.33-312.34c0-199.18-161.47-360.65-360.65-360.65C221.45,39.15,59.98,200.62,59.98,399.8
	L59.98,399.8z M59.98,399.8"/>
<rect x="59.98" y="38.53" class="st1" width="721.92" height="722.88"/>
<path class="st2" d="M421.05,190.54c55.58,0,111.16-0.08,166.75,0.04c40.38,0.08,59.64,19.17,59.64,59.11
	c0.04,99.98,0.04,200.01,0,299.99c0,39.85-19.38,59.27-59.68,59.35c-111.17,0.13-222.33,0.13-333.46,0
	c-41.61-0.04-60.33-18.76-60.37-60.13c-0.12-99.49-0.12-198.98,0-298.47c0.04-41.09,19.01-59.76,60.42-59.84
	C309.88,190.45,365.46,190.54,421.05,190.54L421.05,190.54z"/>
<path class="st3" d="M332.61,415.78c-29.49,39.11-57.84,76.71-87.73,116.37H596.6c-38.42-52.18-75.2-102.24-112.97-153.52
	c-30.11,38.54-58.78,75.24-88.02,112.72C374.02,465.46,354.04,441.42,332.61,415.78L332.61,415.78z"/>
<path class="st4" d="M305.09,341.02c26.22,0.13,46.16-19.58,46.04-45.55c-0.13-24.78-20.4-45.43-44.93-45.75
	c-25.11-0.37-46.73,20.52-46.98,45.39C258.93,320.87,278.91,340.86,305.09,341.02L305.09,341.02z"/>
<path class="st6" d="M421.05,190.54c-55.58,0-111.16-0.08-166.75,0.04c-41.41,0.08-60.37,18.76-60.41,59.84
	c-0.13,99.49-0.13,198.98,0,298.47c0.04,41.37,18.76,60.09,60.38,60.13c68.04,0.08,136.11,0,204.15,0
	c30.09-21.43,56.72-47.35,78.97-76.84H244.84c29.9-39.65,58.25-77.25,87.74-116.37c21.38,25.64,41.41,49.68,63,75.57
	c29.29-37.48,57.96-74.18,88.02-112.72c27.36,37.15,54.19,73.69,81.51,110.8c28.63-51.69,44.93-111.16,44.93-174.41
	c0-43.75-7.78-85.65-22.04-124.44h-0.29C532.21,190.45,476.63,190.54,421.05,190.54L421.05,190.54z M305.09,341.02
	c-26.17-0.12-46.16-20.15-45.92-45.91c0.25-24.86,21.87-45.75,46.98-45.39c24.54,0.37,44.81,20.97,44.93,45.75
	C351.25,321.4,331.3,341.15,305.09,341.02L305.09,341.02z M305.09,341.02"/>
<path class="st7" d="M255.45,532.14h-10.53c29.9-39.65,58.25-77.25,87.74-116.37c14.91,17.9,29.2,35.02,43.79,52.51
	c81.47-65.41,133.9-165.44,135-277.79c-30.11,0-60.25,0.04-90.36,0.04c-55.58,0-111.16-0.08-166.75,0.04
	c-41.41,0.08-60.38,18.76-60.42,59.84c-0.12,98.22-0.08,196.4,0,294.63C214.77,542.55,235.36,538.23,255.45,532.14L255.45,532.14z
	 M306.2,249.72c24.54,0.37,44.81,20.97,44.93,45.75c0.12,25.92-19.83,45.67-46.04,45.55c-26.17-0.12-46.16-20.15-45.92-45.91
	C259.42,270.25,281.09,249.36,306.2,249.72L306.2,249.72z M306.2,249.72"/>
<path class="st8" d="M288.87,338.12c-17.74-6.39-29.9-22.94-29.69-43.05c0.25-24.86,21.87-45.75,46.98-45.38
	c18.23,0.25,34.08,11.71,41.09,27.77c20.23-26.59,36.68-55.85,48.86-86.96c-47.27,0-94.54-0.04-141.8,0.04
	c-41.41,0.08-60.37,18.76-60.41,59.84c-0.04,47.97,0,95.93,0,143.89C228.25,380.57,260.3,361.63,288.87,338.12L288.87,338.12z
	 M288.87,338.12 M981,144.98h-99V71h99V144.98z"/>
</svg>
