<?xml version="1.0" encoding="utf-8"?>
<!-- Generator: Adobe Illustrator 24.2.0, SVG Export Plug-In . SVG Version: 6.00 Build 0)  -->
<svg version="1.1" id="图层_1" xmlns="http://www.w3.org/2000/svg" xmlns:xlink="http://www.w3.org/1999/xlink" x="0px" y="0px"
	 viewBox="0 0 841.89 792" style="enable-background:new 0 0 841.89 792;" xml:space="preserve">
<style type="text/css">
	.st0{fill:#E9F4FF;}
	.st1{fill:#FFE3DB;}
	.st2{fill:#F23D4F;}
	.st3{fill:#FC4956;}
	.st4{fill:#FF5C64;}
	.st5{fill:#FF716E;}
	.st6{fill:#2595E8;}
	.st7{fill:#3A9CED;}
	.st8{fill:#59ADF8;}
	.st9{fill:#6BC2FC;}
</style>
<path class="st0" d="M670.66,758.31h-507.3c-59.09,0-107-47.91-107-107V144c0-59.09,47.91-107,107-107h507.3
	c59.09,0,107,47.91,107,107v507.31C777.66,710.4,729.76,758.31,670.66,758.31z"/>
<g>
	<path class="st1" d="M56.36,397.65c0,199.18,161.47,360.65,360.65,360.65c199.18,0,360.65-161.47,360.65-360.65
		C777.66,198.47,616.19,37,417.01,37C217.83,37,56.36,198.47,56.36,397.65L56.36,397.65z M56.36,397.65"/>
	<path class="st2" d="M652.45,324.5c-4.18-17.25-19.99-45.92-36.37-69.51c-7.21-10.36-23.18-7.83-26.95,4.26
		c-5.9,18.68-15.28,40.14-31.58,59.43c-2.99,3.52-8.81,1.72-9.09-2.91c-3.11-47.8-25.77-171.37-185.51-188.74
		c-11.02-1.19-19.62,9.5-16.02,19.99c12.04,35.23,21.71,102.93-33.46,144.43c-2.25,1.67-5.37,1.1-7.13-1.07
		c-18.39-23.43-41.33-37.8-72.42-43.62c-10.85-2.01-19.99,7.86-17.49,18.64c4.84,20.77,6.84,56.2-12.94,104.45
		c-33.22,80.9-71.52,276.28,233.27,276.28C741.54,646.12,658.31,348.71,652.45,324.5L652.45,324.5z M296.63,542.82
		c-4.69,4.4-10.95,6.75-17.38,6.54c-6.43-0.21-12.51-2.98-16.9-7.69c-40.59-43.42-22.94-124.39-20.81-133.49
		c3.07-13.03,16.14-21.14,29.16-18.02c6.25,1.47,11.66,5.37,15.05,10.83c3.38,5.46,4.45,12.04,2.98,18.3
		c-3.85,16.55-10.45,68.4,9.01,89.25C306.91,518.32,306.42,533.68,296.63,542.82L296.63,542.82z M296.63,542.82"/>
	<path class="st3" d="M647.29,309.59c-7-16.43-18.96-36.95-31.21-54.6c-7.21-10.36-23.18-7.83-26.95,4.26
		c-5.9,18.68-15.28,40.14-31.58,59.43c-2.99,3.52-8.81,1.72-9.09-2.91c-3.11-47.8-25.77-171.37-185.51-188.74
		c-11.02-1.19-19.62,9.5-16.02,19.99c12.04,35.23,21.71,102.93-33.46,144.43c-2.25,1.67-5.37,1.1-7.13-1.07
		c-18.39-23.43-41.33-37.8-72.42-43.62c-10.85-2.01-19.99,7.86-17.49,18.64c4.84,20.77,6.84,56.2-12.94,104.45
		c-29,70.62-61.81,228.4,132.91,267.43C505.85,620.52,639.3,481.46,647.29,309.59L647.29,309.59z M296.63,542.82
		c-4.69,4.4-10.95,6.75-17.38,6.54c-6.43-0.21-12.51-2.98-16.9-7.69c-40.59-43.42-22.94-124.39-20.81-133.49
		c3.07-13.03,16.14-21.14,29.16-18.02c6.25,1.47,11.66,5.37,15.05,10.83c3.38,5.46,4.45,12.04,2.98,18.3
		c-3.85,16.55-10.45,68.4,9.01,89.25C306.91,518.32,306.42,533.68,296.63,542.82L296.63,542.82z M296.63,542.82"/>
	<path class="st4" d="M539.77,265.76c-15.85-55.34-59.02-125.91-176.87-138.73c-11.02-1.19-19.62,9.5-16.02,19.99
		c12.04,35.23,21.71,102.93-33.46,144.43c-2.25,1.67-5.37,1.1-7.13-1.07c-18.39-23.43-41.33-37.8-72.42-43.62
		c-10.85-2.01-19.99,7.86-17.49,18.64c4.83,20.77,6.84,56.2-12.95,104.45c-14.5,35.31-29.98,92.45-17.41,145.66
		c7.13,0.45,14.25,0.73,21.5,0.73c12.74,0,25.27-0.73,37.64-2.09c-17.41-43.63-5.41-98.51-3.68-105.93
		c3.07-13.02,16.14-21.13,29.16-18.02c6.25,1.47,11.67,5.36,15.05,10.82c3.38,5.47,4.45,12.05,2.98,18.3
		c-3.64,15.69-9.71,63.08,6.23,85.69C413,474.25,506.35,382.66,539.77,265.76L539.77,265.76z M539.77,265.76"/>
	<path class="st5" d="M362.9,127.03c-11.02-1.19-19.62,9.5-16.02,19.99c12.04,35.23,21.71,102.93-33.46,144.43
		c-2.25,1.67-5.37,1.1-7.13-1.07c-18.39-23.43-41.33-37.8-72.42-43.62c-10.85-2.01-19.99,7.86-17.49,18.64
		c4.83,20.77,6.84,56.2-12.95,104.45c-2.05,5.06-3.99,10.17-5.82,15.32c119.85-27.32,216.02-116.82,252.6-232.86
		C427.05,139.97,398.37,130.88,362.9,127.03L362.9,127.03z M362.9,127.03"/>
</g>
<g>
	<path class="st1" d="M56.36,397.65c0,199.18,161.47,360.65,360.65,360.65c199.18,0,360.65-161.47,360.65-360.65
		C777.66,198.47,616.19,37,417.01,37C217.83,37,56.36,198.47,56.36,397.65L56.36,397.65z M56.36,397.65"/>
	<path class="st2" d="M507.62,669.71H333.45c-13.56,0-24.57-11.02-24.57-24.58c0-13.56,11.02-24.57,24.57-24.57h174.16
		c13.55,0,24.57,11.02,24.57,24.57C532.19,658.69,521.17,669.71,507.62,669.71L507.62,669.71z M424.96,124.12
		c-115.46-3.77-213.56,91.1-213.56,206.65c0,74.1,38.99,139.02,97.52,175.51v47.06c0,19.75,16.02,35.72,35.72,35.72h150.48
		c19.75,0,35.72-16.02,35.72-35.72v-49.31c56.61-36.91,94.04-100.72,94.04-173.31C624.92,218.86,536,127.73,424.96,124.12
		L424.96,124.12z M363.27,261.99c-0.66,0.66-32.77,31.7-34.53,77.91c-0.53,14.34-12.37,25.6-26.58,25.6h-1.02
		c-14.7-0.58-26.15-12.95-25.6-27.65c2.66-69.06,49.52-113.05,51.53-114.9c10.82-9.96,27.66-9.28,37.64,1.52
		C374.65,235.24,374.01,252.02,363.27,261.99L363.27,261.99z M363.27,261.99"/>
	<path class="st3" d="M598.91,270.47c0-15.57-1.19-30.84-3.32-45.84c-35.02-58.45-98.1-98.18-170.64-100.52
		c-115.46-3.77-213.56,91.1-213.56,206.65c0,74.1,38.99,139.02,97.52,175.51v47.06c0,15.61,10.04,28.88,24,33.71
		C484.02,560.8,598.91,429.07,598.91,270.47L598.91,270.47z M363.27,261.99c-0.66,0.66-32.77,31.7-34.53,77.91
		c-0.53,14.34-12.37,25.6-26.58,25.6h-1.02c-14.7-0.58-26.15-12.95-25.6-27.65c2.66-69.06,49.52-113.05,51.53-114.9
		c10.82-9.96,27.66-9.28,37.64,1.52C374.65,235.24,374.01,252.02,363.27,261.99L363.27,261.99z M363.27,261.99"/>
	<path class="st4" d="M211.39,330.77c0,53.12,20.15,101.54,53.08,138.12c141.36-33.79,246.5-160.89,246.5-312.61
		c0-3.48-0.16-6.97-0.24-10.45c-26.66-13.4-55.91-20.82-85.73-21.75C309.49,120.36,211.39,215.22,211.39,330.77L211.39,330.77z
		 M363.27,261.99c-0.66,0.66-32.77,31.7-34.53,77.91c-0.53,14.34-12.37,25.6-26.58,25.6h-1.02c-14.7-0.58-26.15-12.95-25.6-27.65
		c2.66-69.06,49.52-113.05,51.53-114.9c10.82-9.96,27.66-9.28,37.64,1.52C374.65,235.24,374.01,252.02,363.27,261.99L363.27,261.99z
		 M363.27,261.99"/>
	<path class="st5" d="M327.06,222.96c6.2-5.71,14.72-8.15,23-6.59c8.28,1.55,15.33,6.93,19.03,14.5
		c22.98-31.74,40.39-67.83,50.59-106.83c-113.17-0.66-208.28,92.98-208.28,206.73c0,5.44,0.29,10.81,0.69,16.14
		c23.08-7.84,45.19-18.28,65.9-31.13C288.11,259.54,325.3,224.6,327.06,222.96L327.06,222.96z M327.06,222.96"/>
</g>
<g>
	<path class="st0" d="M56.36,397.65c0,199.18,161.47,360.65,360.65,360.65c199.18,0,360.65-161.47,360.65-360.65
		C777.66,198.47,616.19,37,417.01,37C217.83,37,56.36,198.47,56.36,397.65L56.36,397.65z M56.36,397.65"/>
	<path class="st6" d="M612.51,194.16H448.63v-16.3c0-13.89-11.26-25.15-25.15-25.15c-13.89,0-25.15,11.27-25.15,25.15v16.3H218.73
		c-23.59,0-42.68,19.13-42.68,42.68v245.11c0,23.59,19.13,42.68,42.68,42.68h110.3l-47.02,85.9c-3.21,5.85-3.96,12.74-2.09,19.15
		c1.88,6.41,6.22,11.8,12.08,15.01c3.85,2.09,7.98,3.11,12.04,3.11c8.89,0,17.53-4.75,22.12-13.11l60.25-110.06h80.9l60.25,110.06
		c4.42,8.09,12.9,13.11,22.12,13.11c4.1,0,8.24-0.98,12.04-3.11c5.86-3.2,10.21-8.6,12.08-15.01c1.88-6.41,1.13-13.3-2.09-19.15
		l-47.02-85.9h87.82c23.59,0,42.68-19.13,42.68-42.68V236.84C655.19,213.25,636.07,194.16,612.51,194.16L612.51,194.16z
		 M442.45,441.65H293.07c-13.88,0-25.15-11.27-25.15-25.15c0-13.89,11.26-25.15,25.15-25.15h149.38c13.88,0,25.15,11.27,25.15,25.15
		C467.64,430.38,456.37,441.65,442.45,441.65L442.45,441.65z M535.39,333.14H293.07c-13.88,0-25.15-11.27-25.15-25.15
		c0-13.89,11.26-25.15,25.15-25.15h242.36c13.89,0,25.15,11.26,25.15,25.15C560.58,321.88,549.31,333.14,535.39,333.14
		L535.39,333.14z M535.39,333.14"/>
	<path class="st7" d="M612.51,194.16H448.63v-16.3c0-13.89-11.26-25.15-25.15-25.15c-13.89,0-25.15,11.27-25.15,25.15v16.3H218.73
		c-23.59,0-42.68,19.13-42.68,42.68v245.11c0,23.59,19.13,42.68,42.68,42.68h110.3l-38.14,69.63c0.7,0,1.39,0.04,2.09,0.04
		c19.7,0,39-1.6,57.84-4.63l35.59-65.04h80.9l10.32,18.88C583.02,480.56,653.6,365.38,653.6,233.69c0-2.91-0.04-5.78-0.12-8.65
		C648.35,207.19,631.97,194.16,612.51,194.16L612.51,194.16z M442.45,441.65H293.07c-13.88,0-25.15-11.27-25.15-25.15
		c0-13.89,11.26-25.15,25.15-25.15h149.38c13.88,0,25.15,11.27,25.15,25.15C467.64,430.38,456.37,441.65,442.45,441.65
		L442.45,441.65z M535.39,333.14H293.07c-13.88,0-25.15-11.27-25.15-25.15c0-13.89,11.26-25.15,25.15-25.15h242.36
		c13.89,0,25.15,11.26,25.15,25.15C560.58,321.88,549.31,333.14,535.39,333.14L535.39,333.14z M535.39,333.14"/>
	<path class="st8" d="M448.63,177.86c0-13.89-11.26-25.15-25.15-25.15c-13.89,0-25.15,11.27-25.15,25.15v16.3H218.73
		c-23.59,0-42.68,19.13-42.68,42.68v228.93c6.06,0.28,12.17,0.45,18.27,0.45c46.24,0,90.44-8.72,131.03-24.57h-32.28
		c-13.88,0-25.15-11.27-25.15-25.15c0-13.89,11.26-25.15,25.15-25.15h121.24c22.09-17.04,42.14-36.57,59.76-58.2h-181
		c-13.88,0-25.15-11.27-25.15-25.15c0-13.89,11.26-25.15,25.15-25.15h215.37c15.76-27.84,27.7-57.66,35.51-88.68h-95.35v-16.3
		H448.63z M448.63,177.86"/>
	<path class="st9" d="M269.96,298c3.98-9.22,13.06-15.2,23.1-15.2h3.28c37.11-23.51,69.63-53.62,95.93-88.68H218.73
		c-23.59,0-42.68,19.13-42.68,42.68v94.49C209.22,324.54,240.76,313.19,269.96,298L269.96,298z M418.89,153.12
		c-11.71,2.17-20.6,12.41-20.6,24.74v8.03C405.71,175.36,412.59,164.43,418.89,153.12L418.89,153.12z M418.89,153.12"/>
</g>
</svg>
