<?xml version="1.0" encoding="utf-8"?>
<!-- Generator: Adobe Illustrator 24.2.0, SVG Export Plug-In . SVG Version: 6.00 Build 0)  -->
<svg version="1.1" id="图层_1" xmlns="http://www.w3.org/2000/svg" xmlns:xlink="http://www.w3.org/1999/xlink" x="0px" y="0px"
	 viewBox="0 0 841.89 792" style="enable-background:new 0 0 841.89 792;" xml:space="preserve">
<style type="text/css">
	.st0{fill:#FFE3DB;}
	.st1{fill:#F23D4F;}
	.st2{fill:#FC4956;}
	.st3{fill:#FF5C64;}
	.st4{fill:#FF716E;}
</style>
<path class="st0" d="M673.3,758.31H166c-59.09,0-107-47.91-107-107V144c0-59.09,47.91-107,107-107h507.3c59.09,0,107,47.91,107,107
	v507.3C780.3,710.4,732.4,758.31,673.3,758.31z"/>
<g>
	<path class="st0" d="M59,397.65c0,199.18,161.47,360.65,360.65,360.65c199.18,0,360.65-161.47,360.65-360.65
		C780.3,198.47,618.84,37,419.65,37C220.47,37,59,198.47,59,397.65L59,397.65z M59,397.65"/>
	<path class="st1" d="M655.09,324.5c-4.18-17.25-19.99-45.92-36.37-69.51c-7.21-10.36-23.18-7.83-26.95,4.26
		c-5.9,18.68-15.28,40.14-31.58,59.43c-2.99,3.52-8.81,1.72-9.09-2.91c-3.11-47.8-25.77-171.37-185.51-188.74
		c-11.02-1.19-19.62,9.5-16.02,19.99c12.04,35.23,21.71,102.93-33.46,144.43c-2.25,1.67-5.37,1.1-7.13-1.07
		c-18.39-23.43-41.33-37.8-72.42-43.62c-10.85-2.01-19.99,7.86-17.49,18.64c4.84,20.77,6.84,56.2-12.94,104.45
		c-33.22,80.9-71.52,276.28,233.27,276.28C744.18,646.12,660.95,348.71,655.09,324.5L655.09,324.5z M299.27,542.82
		c-4.69,4.4-10.95,6.75-17.38,6.54c-6.43-0.22-12.51-2.98-16.9-7.69c-40.59-43.42-22.94-124.39-20.81-133.49
		c3.07-13.03,16.14-21.14,29.16-18.02c6.25,1.47,11.66,5.37,15.05,10.83c3.38,5.46,4.45,12.04,2.98,18.3
		c-3.85,16.55-10.45,68.4,9.01,89.25C309.55,518.32,309.06,533.68,299.27,542.82L299.27,542.82z M299.27,542.82"/>
	<path class="st2" d="M649.93,309.59c-7-16.43-18.96-36.95-31.21-54.6c-7.21-10.36-23.18-7.83-26.95,4.26
		c-5.9,18.68-15.28,40.14-31.58,59.43c-2.99,3.52-8.81,1.72-9.09-2.91c-3.11-47.8-25.77-171.37-185.51-188.74
		c-11.02-1.19-19.62,9.5-16.02,19.99c12.04,35.23,21.71,102.93-33.46,144.43c-2.25,1.67-5.37,1.1-7.13-1.07
		c-18.39-23.43-41.33-37.8-72.42-43.62c-10.85-2.01-19.99,7.86-17.49,18.64c4.84,20.77,6.84,56.2-12.94,104.45
		c-29,70.62-61.81,228.39,132.91,267.43C508.5,620.52,641.94,481.46,649.93,309.59L649.93,309.59z M299.27,542.82
		c-4.69,4.4-10.95,6.75-17.38,6.54c-6.43-0.22-12.51-2.98-16.9-7.69c-40.59-43.42-22.94-124.39-20.81-133.49
		c3.07-13.03,16.14-21.14,29.16-18.02c6.25,1.47,11.66,5.37,15.05,10.83c3.38,5.46,4.45,12.04,2.98,18.3
		c-3.85,16.55-10.45,68.4,9.01,89.25C309.55,518.32,309.06,533.68,299.27,542.82L299.27,542.82z M299.27,542.82"/>
	<path class="st3" d="M542.41,265.76c-15.85-55.34-59.02-125.91-176.87-138.73c-11.02-1.19-19.62,9.5-16.02,19.99
		c12.04,35.23,21.71,102.93-33.46,144.43c-2.25,1.67-5.37,1.1-7.13-1.07c-18.39-23.43-41.33-37.8-72.42-43.62
		c-10.85-2.01-19.99,7.86-17.49,18.64c4.83,20.77,6.84,56.2-12.95,104.45c-14.5,35.31-29.98,92.45-17.41,145.66
		c7.13,0.45,14.25,0.73,21.5,0.73c12.74,0,25.27-0.73,37.64-2.09c-17.41-43.63-5.41-98.51-3.68-105.93
		c3.07-13.02,16.14-21.13,29.16-18.02c6.25,1.47,11.67,5.36,15.05,10.82c3.38,5.47,4.45,12.05,2.98,18.3
		c-3.64,15.69-9.71,63.08,6.23,85.69C415.64,474.25,508.99,382.66,542.41,265.76L542.41,265.76z M542.41,265.76"/>
	<path class="st4" d="M365.54,127.03c-11.02-1.19-19.62,9.5-16.02,19.99c12.04,35.23,21.71,102.93-33.46,144.43
		c-2.25,1.67-5.37,1.1-7.13-1.07c-18.39-23.43-41.33-37.8-72.42-43.62c-10.85-2.01-19.99,7.86-17.49,18.64
		c4.83,20.77,6.84,56.2-12.95,104.45c-2.05,5.06-3.99,10.17-5.82,15.32c119.85-27.32,216.02-116.82,252.6-232.86
		C429.69,139.97,401.02,130.88,365.54,127.03L365.54,127.03z M365.54,127.03"/>
</g>
<g>
	<path class="st0" d="M59.58,398.65c0,199.18,161.47,360.65,360.65,360.65c199.18,0,360.65-161.47,360.65-360.65
		C780.89,199.47,619.42,38,420.23,38C221.05,38,59.58,199.47,59.58,398.65L59.58,398.65z M59.58,398.65"/>
	<path class="st1" d="M510.84,670.71H336.68c-13.56,0-24.57-11.02-24.57-24.58c0-13.56,11.02-24.57,24.57-24.57h174.16
		c13.55,0,24.57,11.02,24.57,24.57C535.41,659.69,524.39,670.71,510.84,670.71L510.84,670.71z M428.18,125.12
		c-115.46-3.77-213.56,91.1-213.56,206.65c0,74.1,38.99,139.02,97.52,175.51v47.06c0,19.75,16.02,35.72,35.72,35.72h150.48
		c19.75,0,35.72-16.02,35.72-35.72v-49.31c56.61-36.91,94.04-100.72,94.04-173.31C628.15,219.86,539.22,128.73,428.18,125.12
		L428.18,125.12z M366.5,262.99c-0.66,0.66-32.77,31.7-34.53,77.91c-0.53,14.34-12.37,25.6-26.58,25.6h-1.02
		c-14.7-0.58-26.15-12.95-25.6-27.65c2.66-69.06,49.52-113.05,51.53-114.9c10.82-9.96,27.66-9.28,37.64,1.52
		C377.88,236.24,377.23,253.02,366.5,262.99L366.5,262.99z M366.5,262.99"/>
	<path class="st2" d="M602.14,271.47c0-15.57-1.19-30.84-3.32-45.84c-35.02-58.45-98.1-98.18-170.64-100.52
		c-115.46-3.77-213.56,91.1-213.56,206.65c0,74.1,38.99,139.02,97.52,175.51v47.06c0,15.61,10.03,28.88,24,33.71
		C487.25,561.8,602.14,430.07,602.14,271.47L602.14,271.47z M366.5,262.99c-0.66,0.66-32.77,31.7-34.53,77.91
		c-0.53,14.34-12.37,25.6-26.58,25.6h-1.02c-14.7-0.58-26.15-12.95-25.6-27.65c2.66-69.06,49.52-113.05,51.53-114.9
		c10.82-9.96,27.66-9.28,37.64,1.52C377.88,236.24,377.23,253.02,366.5,262.99L366.5,262.99z M366.5,262.99"/>
	<path class="st3" d="M214.62,331.77c0,53.12,20.15,101.54,53.08,138.12c141.36-33.79,246.5-160.89,246.5-312.61
		c0-3.48-0.16-6.97-0.24-10.45c-26.66-13.4-55.91-20.82-85.73-21.75C312.72,121.36,214.62,216.22,214.62,331.77L214.62,331.77z
		 M366.5,262.99c-0.66,0.66-32.77,31.7-34.53,77.91c-0.53,14.34-12.37,25.6-26.58,25.6h-1.02c-14.7-0.58-26.15-12.95-25.6-27.65
		c2.66-69.06,49.52-113.05,51.53-114.9c10.82-9.96,27.66-9.28,37.64,1.52C377.88,236.24,377.23,253.02,366.5,262.99L366.5,262.99z
		 M366.5,262.99"/>
	<path class="st4" d="M330.29,223.96c6.2-5.71,14.72-8.15,23-6.59c8.28,1.55,15.33,6.93,19.03,14.5
		c22.98-31.74,40.39-67.83,50.59-106.83c-113.17-0.66-208.28,92.98-208.28,206.73c0,5.44,0.29,10.81,0.69,16.14
		c23.08-7.84,45.19-18.28,65.9-31.13C291.33,260.54,328.53,225.6,330.29,223.96L330.29,223.96z M330.29,223.96"/>
</g>
</svg>
